<svg width="146" height="47" viewBox="0 0 146 47" fill="none" xmlns="http://www.w3.org/2000/svg">
<path d="M12.144 9.272V11.048H7.584V26H5.4V11.048H0.816V9.272H12.144ZM21.3604 12.608C22.3524 12.608 23.2484 12.824 24.0484 13.256C24.8484 13.672 25.4724 14.304 25.9204 15.152C26.3844 16 26.6164 17.032 26.6164 18.248V26H24.4564V18.56C24.4564 17.248 24.1284 16.248 23.4724 15.56C22.8164 14.856 21.9204 14.504 20.7844 14.504C19.6324 14.504 18.7124 14.864 18.0244 15.584C17.3524 16.304 17.0164 17.352 17.0164 18.728V26H14.8324V8.24H17.0164V14.72C17.4484 14.048 18.0404 13.528 18.7924 13.16C19.5604 12.792 20.4164 12.608 21.3604 12.608ZM42.1839 18.92C42.1839 19.336 42.1599 19.776 42.1119 20.24H31.5999C31.6799 21.536 32.1199 22.552 32.9199 23.288C33.7359 24.008 34.7199 24.368 35.8719 24.368C36.8159 24.368 37.5999 24.152 38.2239 23.72C38.8639 23.272 39.3119 22.68 39.5679 21.944H41.9199C41.5679 23.208 40.8639 24.24 39.8079 25.04C38.7519 25.824 37.4399 26.216 35.8719 26.216C34.6239 26.216 33.5039 25.936 32.5119 25.376C31.5359 24.816 30.7679 24.024 30.2079 23C29.6479 21.96 29.3679 20.76 29.3679 19.4C29.3679 18.04 29.6399 16.848 30.1839 15.824C30.7279 14.8 31.4879 14.016 32.4639 13.472C33.4559 12.912 34.5919 12.632 35.8719 12.632C37.1199 12.632 38.2239 12.904 39.1839 13.448C40.1439 13.992 40.8799 14.744 41.3919 15.704C41.9199 16.648 42.1839 17.72 42.1839 18.92ZM39.9279 18.464C39.9279 17.632 39.7439 16.92 39.3759 16.328C39.0079 15.72 38.5039 15.264 37.8639 14.96C37.2399 14.64 36.5439 14.48 35.7759 14.48C34.6719 14.48 33.7279 14.832 32.9439 15.536C32.1759 16.24 31.7359 17.216 31.6239 18.464H39.9279ZM59.8892 9.272V21.632C59.8892 23.008 59.4652 24.112 58.6172 24.944C57.7692 25.76 56.6492 26.168 55.2572 26.168C53.8492 26.168 52.7212 25.752 51.8732 24.92C51.0252 24.072 50.6012 22.92 50.6012 21.464H52.7852C52.8012 22.28 53.0092 22.944 53.4092 23.456C53.8252 23.968 54.4412 24.224 55.2572 24.224C56.0732 24.224 56.6812 23.984 57.0812 23.504C57.4812 23.008 57.6812 22.384 57.6812 21.632V9.272H59.8892ZM69.9278 26.216C68.6958 26.216 67.5758 25.936 66.5678 25.376C65.5758 24.816 64.7918 24.024 64.2158 23C63.6558 21.96 63.3758 20.76 63.3758 19.4C63.3758 18.056 63.6638 16.872 64.2398 15.848C64.8318 14.808 65.6318 14.016 66.6398 13.472C67.6478 12.912 68.7758 12.632 70.0238 12.632C71.2718 12.632 72.3998 12.912 73.4078 13.472C74.4158 14.016 75.2078 14.8 75.7838 15.824C76.3758 16.848 76.6718 18.04 76.6718 19.4C76.6718 20.76 76.3678 21.96 75.7598 23C75.1678 24.024 74.3598 24.816 73.3358 25.376C72.3118 25.936 71.1758 26.216 69.9278 26.216ZM69.9278 24.296C70.7118 24.296 71.4478 24.112 72.1358 23.744C72.8238 23.376 73.3758 22.824 73.7918 22.088C74.2238 21.352 74.4398 20.456 74.4398 19.4C74.4398 18.344 74.2318 17.448 73.8158 16.712C73.3998 15.976 72.8558 15.432 72.1838 15.08C71.5118 14.712 70.7838 14.528 69.9998 14.528C69.1998 14.528 68.4638 14.712 67.7918 15.08C67.1358 15.432 66.6078 15.976 66.2078 16.712C65.8078 17.448 65.6078 18.344 65.6078 19.4C65.6078 20.472 65.7998 21.376 66.1838 22.112C66.5838 22.848 67.1118 23.4 67.7678 23.768C68.4238 24.12 69.1438 24.296 69.9278 24.296ZM91.2073 12.848V26H89.0233V24.056C88.6073 24.728 88.0233 25.256 87.2713 25.64C86.5353 26.008 85.7193 26.192 84.8233 26.192C83.7993 26.192 82.8793 25.984 82.0633 25.568C81.2473 25.136 80.5993 24.496 80.1193 23.648C79.6553 22.8 79.4233 21.768 79.4233 20.552V12.848H81.5833V20.264C81.5833 21.56 81.9113 22.56 82.5673 23.264C83.2233 23.952 84.1193 24.296 85.2553 24.296C86.4233 24.296 87.3433 23.936 88.0153 23.216C88.6873 22.496 89.0233 21.448 89.0233 20.072V12.848H91.2073ZM97.0789 14.984C97.4629 14.232 98.0069 13.648 98.7109 13.232C99.4309 12.816 100.303 12.608 101.327 12.608V14.864H100.751C98.3029 14.864 97.0789 16.192 97.0789 18.848V26H94.8949V12.848H97.0789V14.984ZM110.256 12.608C111.856 12.608 113.152 13.096 114.144 14.072C115.136 15.032 115.632 16.424 115.632 18.248V26H113.472V18.56C113.472 17.248 113.144 16.248 112.488 15.56C111.832 14.856 110.936 14.504 109.8 14.504C108.648 14.504 107.728 14.864 107.04 15.584C106.368 16.304 106.032 17.352 106.032 18.728V26H103.848V12.848H106.032V14.72C106.464 14.048 107.048 13.528 107.784 13.16C108.536 12.792 109.36 12.608 110.256 12.608ZM131.2 18.92C131.2 19.336 131.176 19.776 131.128 20.24H120.616C120.696 21.536 121.136 22.552 121.936 23.288C122.752 24.008 123.736 24.368 124.888 24.368C125.832 24.368 126.616 24.152 127.24 23.72C127.88 23.272 128.328 22.68 128.584 21.944H130.936C130.584 23.208 129.88 24.24 128.824 25.04C127.768 25.824 126.456 26.216 124.888 26.216C123.64 26.216 122.52 25.936 121.528 25.376C120.552 24.816 119.784 24.024 119.224 23C118.664 21.96 118.384 20.76 118.384 19.4C118.384 18.04 118.656 16.848 119.2 15.824C119.744 14.8 120.504 14.016 121.48 13.472C122.472 12.912 123.608 12.632 124.888 12.632C126.136 12.632 127.24 12.904 128.2 13.448C129.16 13.992 129.896 14.744 130.408 15.704C130.936 16.648 131.2 17.72 131.2 18.92ZM128.944 18.464C128.944 17.632 128.76 16.92 128.392 16.328C128.024 15.72 127.52 15.264 126.88 14.96C126.256 14.64 125.56 14.48 124.792 14.48C123.688 14.48 122.744 14.832 121.96 15.536C121.192 16.24 120.752 17.216 120.64 18.464H128.944ZM145.41 12.848L137.49 32.192H135.234L137.826 25.856L132.522 12.848H134.946L139.074 23.504L143.154 12.848H145.41Z" fill="black"/>
<g clip-path="url(#clip0_131_2190)" filter="url(#filter0_d_131_2190)">
<path d="M132.085 21.9929C132.02 21.7638 131.782 21.6307 131.553 21.6955C131.323 21.7603 131.19 21.9986 131.255 22.2276L132.429 26.3751L115.839 31.0702C114.694 31.3943 114.028 32.5855 114.352 33.7308C114.367 33.7996 114.387 33.8675 114.41 33.934C114.852 34.9801 116.013 35.5234 117.1 35.193L118.672 34.7481L118.085 32.6744L122.232 31.5006L122.819 33.5743L133.603 30.5225C134.061 30.3929 134.327 29.9164 134.197 29.4583L133.024 25.3108" fill="#3B97D3"/>
<path d="M131.615 20.3321L132.839 24.6579L124.447 19.9684L126.325 16.6148C127.744 18.2835 129.564 19.5629 131.615 20.3321Z" fill="#95A5A5"/>
<path d="M117.608 34.1516L116.865 34.3617C116.207 34.569 115.498 34.2493 115.217 33.6187C115.202 33.5647 115.191 33.5274 115.182 33.4942C114.987 32.8071 115.387 32.0923 116.074 31.8979L132.249 27.3202C132.23 28.2014 132.475 29.0682 132.953 29.8086L117.608 34.1516Z" fill="#F5EFCA"/>
<path d="M132.839 24.6586L132.906 24.895C133.035 25.3512 132.885 26.2449 132.429 26.374L132.396 26.3834L123.61 21.4739L118.692 30.2615L116.353 30.9235L121.681 21.3838L120.176 20.5464L118.674 19.7036L111.485 15.6862L110.822 13.3429L122.529 19.885L124.212 16.8732L114.847 11.6395L117.194 10.9751L125.048 15.3643L125.277 14.9546C125.561 15.5468 125.913 16.1041 126.325 16.6156L124.448 19.9691L132.839 24.6586Z" fill="#F3D55B"/>
<path d="M124.823 13.7433C124.941 14.1602 125.093 14.5665 125.279 14.9582L125.05 15.3679L117.194 10.9746L128.094 7.88994C125.574 8.60302 124.11 11.2237 124.823 13.7433Z" fill="#F29C1F"/>
<path d="M124.207 16.8702L122.524 19.882L110.822 13.3429L110.674 12.8203L114.847 11.6395L124.207 16.8702Z" fill="#4FBA6F"/>
<path d="M110.674 12.8213L115.839 31.0701C114.694 31.3942 114.028 32.5854 114.352 33.7307L109.187 15.4819C108.863 14.3366 109.529 13.1454 110.674 12.8213Z" fill="#2980BA"/>
<path d="M132.906 24.8953L134.197 29.4575L131.957 30.0914C131.4 29.389 131.147 28.4931 131.253 27.6029L132.663 27.2038C133.121 27.0742 133.388 26.5977 133.258 26.1396L132.906 24.8953Z" fill="#285680"/>
<path d="M132.906 24.8949L133.024 25.3097C133.008 25.2556 132.981 25.2053 132.946 25.1614C132.942 25.0714 132.929 24.982 132.906 24.8949Z" fill="#285680"/>
<path d="M132.395 26.3834L118.692 30.2615L123.61 21.4738L132.395 26.3834Z" fill="#95A5A5"/>
<path d="M121.681 21.3834L116.353 30.9232L115.839 31.0687L114.657 26.8923L118.674 19.7033L120.176 20.546L121.681 21.3834Z" fill="#285680"/>
<path d="M115.748 18.0675L113.366 22.3298L111.485 15.6855L115.748 18.0675Z" fill="#285680"/>
<path d="M118.675 19.7031L114.657 26.8921L113.366 22.3299L115.748 18.0676L118.675 19.7031Z" fill="#4482C3"/>
<path d="M128.094 7.89049C125.574 8.60357 124.11 11.2242 124.823 13.7438C124.941 14.1607 125.093 14.5671 125.279 14.9587C125.563 15.5509 125.914 16.1083 126.327 16.6197C127.745 18.2868 129.565 19.5647 131.615 20.3328C131.615 20.3328 135.287 15.8938 133.947 11.1615C133.605 9.95157 132.796 8.92719 131.698 8.31375C130.6 7.70031 129.304 7.54806 128.094 7.89049ZM129.972 14.5264C128.598 14.9154 127.168 14.1165 126.779 12.7422C126.39 11.3679 127.189 9.93843 128.563 9.54947C129.938 9.16052 131.367 9.95934 131.756 11.3337C131.943 11.9937 131.86 12.7008 131.525 13.2996C131.191 13.8983 130.632 14.3396 129.972 14.5264Z" fill="#E64C3C"/>
<path d="M129.972 14.5266C131.346 14.1376 132.145 12.7082 131.756 11.3338C131.367 9.95951 129.938 9.16069 128.563 9.54964C127.189 9.9386 126.39 11.368 126.779 12.7424C127.168 14.1167 128.597 14.9155 129.972 14.5266Z" fill="#F5EFCA"/>
<path d="M130.089 14.9418C128.486 15.3956 126.818 14.4636 126.364 12.8602C125.91 11.2568 126.842 9.58917 128.446 9.13539C130.049 8.68161 131.717 9.61356 132.171 11.217C132.388 11.9869 132.292 12.812 131.901 13.5105C131.511 14.209 130.859 14.7239 130.089 14.9418ZM128.68 9.96488C127.535 10.289 126.869 11.4802 127.194 12.6255C127.518 13.7708 128.709 14.4365 129.854 14.1123C131 13.7882 131.665 12.597 131.341 11.4517C131.185 10.9017 130.818 10.4361 130.319 10.1573C129.82 9.87843 129.23 9.80923 128.68 9.96488Z" fill="#C03A2B"/>
<path d="M124.009 31.4452L116.958 33.4406C116.729 33.5054 116.491 33.3723 116.426 33.1433C116.361 32.9142 116.494 32.676 116.723 32.6111L123.774 30.6157C124.003 30.5509 124.241 30.684 124.306 30.9131C124.371 31.1421 124.238 31.3804 124.009 31.4452Z" fill="#E4C05C"/>
<path d="M122.115 31.084L123.171 34.8167C123.213 34.9658 123.172 35.126 123.064 35.2364C122.955 35.3467 122.795 35.3904 122.646 35.3507L121.191 34.9604C121.042 34.9226 120.884 34.9674 120.777 35.0778L119.743 36.1723C119.635 36.2802 119.479 36.3235 119.331 36.2862C119.184 36.2489 119.067 36.1365 119.024 35.9905L117.967 32.2578L122.115 31.084Z" fill="#E64C3C"/>
<path d="M132.906 24.8949L133.024 25.3097C133.008 25.2556 132.981 25.2053 132.946 25.1614C132.942 25.0714 132.929 24.982 132.906 24.8949Z" fill="#3B97D3"/>
</g>
<g clip-path="url(#clip1_131_2190)">
<path d="M100.3 39.3114C100.3 39.3114 102.034 41.875 98.0238 43.8415C98.0238 43.8415 96.2022 39.5369 100.3 39.3114Z" fill="url(#paint0_linear_131_2190)"/>
<path d="M98.0238 43.8415C98.4668 42.4548 100.3 39.3114 100.3 39.3114C96.2022 39.5369 98.0238 43.8415 98.0238 43.8415Z" fill="url(#paint1_linear_131_2190)"/>
<path d="M101.172 37.6918C101.172 37.6918 104.222 37.1666 104.363 41.6312C104.363 41.6312 99.6906 41.5194 101.172 37.6918Z" fill="url(#paint2_linear_131_2190)"/>
<path d="M104.363 41.6312C103.282 40.6566 101.172 37.6918 101.172 37.6918C99.6906 41.5194 104.363 41.6312 104.363 41.6312Z" fill="url(#paint3_linear_131_2190)"/>
<path d="M102.276 36.7717C102.276 36.7717 105.017 38.2092 106.524 34.0042C106.524 34.0042 102.043 32.6741 102.276 36.7717Z" fill="url(#paint4_linear_131_2190)"/>
<path d="M106.524 34.0042C105.195 34.5991 102.276 36.7717 102.276 36.7717C102.043 32.6741 106.524 34.0042 106.524 34.0042Z" fill="url(#paint5_linear_131_2190)"/>
<path d="M100.3 39.3118C99.2493 39.3697 98.5877 39.6959 98.1849 40.1491L98.9125 41.5953L100.537 41.4602C100.573 41.3556 100.601 41.2528 100.622 41.1523C100.839 40.1075 100.3 39.3118 100.3 39.3118Z" fill="url(#paint6_linear_131_2190)"/>
<path d="M101.172 37.6905C100.628 39.0967 100.914 40.0014 101.494 40.5832L104.224 40.3562C103.601 37.2723 101.172 37.6905 101.172 37.6905Z" fill="url(#paint7_linear_131_2190)"/>
<path d="M102.276 36.7717C102.276 36.7717 105.017 38.2092 106.524 34.0042C106.524 34.0042 102.043 32.6741 102.276 36.7717Z" fill="url(#paint8_linear_131_2190)"/>
<path d="M98.2823 36.4605C98.2823 36.4605 95.2225 35.7986 95.7038 34.9894C96.1851 34.1801 95.1426 34.3311 95.9329 33.6633C96.7232 32.9955 96.0474 33.0003 96.9389 32.2334C97.8303 31.4664 99.9232 31.7788 99.8219 33.4949C99.7521 34.6781 100.338 37.1109 98.2823 36.4605Z" fill="url(#paint9_radial_131_2190)"/>
<path d="M96.0137 35.2328C95.9825 35.2295 95.9509 35.2321 95.9206 35.2405L95.9102 35.2414L95.9127 35.2431C95.8688 35.2568 95.8281 35.2824 95.7962 35.3201C95.7737 35.3468 95.7582 35.3769 95.7485 35.4084C95.7496 35.4097 95.7506 35.411 95.7516 35.4123C95.7795 35.4475 95.8125 35.4822 95.8503 35.5162C95.8517 35.5175 95.8531 35.5189 95.8546 35.5202C95.8738 35.5373 95.894 35.5542 95.9154 35.571C95.9168 35.5721 95.9182 35.5731 95.9195 35.5742C95.9634 35.6084 96.0116 35.6419 96.0635 35.6746C96.0649 35.6755 96.0664 35.6765 96.0679 35.6774C96.1479 35.7277 96.2365 35.7763 96.3309 35.823C97.1101 36.2082 98.2823 36.4619 98.2823 36.4619C99.6628 36.8986 99.8521 35.9455 99.8486 34.9139L96.0137 35.2328ZM96.2383 35.4842C96.2384 35.4756 96.2379 35.4671 96.2371 35.4585L96.2851 35.4904C96.2696 35.4884 96.2537 35.4862 96.2383 35.4842Z" fill="url(#paint10_linear_131_2190)"/>
<path d="M99.4596 36.3052C99.5415 36.2048 99.5828 36.0774 99.584 35.9478C99.5867 35.6439 99.565 34.7904 99.2665 34.1369C98.8971 33.328 99.3108 34.6677 99.2342 35.2031C99.1577 35.7384 98.9223 34.634 98.2496 34.127C97.5769 33.62 98.8279 35.3395 98.7942 35.728C98.7605 36.1165 98.3455 35.3819 97.93 35.2766C97.5146 35.1713 98.2716 35.9898 98.4696 36.1033C98.6675 36.2169 97.791 36.0806 97.6497 36.1828C97.5083 36.2849 98.7277 36.5292 99.1135 36.4904C99.2788 36.4738 99.3884 36.3926 99.4596 36.3052Z" fill="url(#paint11_linear_131_2190)"/>
<path d="M98.8877 36.5449C98.8877 36.5449 96.9038 35.0168 95.5047 36.2528C94.1056 37.4887 95.3282 37.4144 95.0886 37.8166C94.849 38.2188 94.1098 38.8537 95.1176 39.8076C96.1254 40.7614 100.573 37.7701 98.8877 36.5449Z" fill="url(#paint12_radial_131_2190)"/>
<path d="M99.1683 37.667C99.3063 37.3357 99.1349 36.9558 98.7996 36.8276C98.3684 36.6628 97.7209 36.4315 97.3653 36.3792C96.8017 36.2961 97.6694 36.6879 97.9159 36.8623C98.1624 37.0367 97.0988 36.856 96.5213 37.0525C95.9438 37.249 96.3975 37.4617 96.8307 37.3144C97.2638 37.167 97.0403 37.4918 96.4988 37.7874C95.9574 38.083 96.296 38.2496 97.3497 37.7537C98.4034 37.2578 98.8534 37.5359 98.484 37.6687C98.1146 37.8015 97.6714 38.1631 97.5524 38.405C97.4863 38.5391 98.319 38.3273 98.8999 37.9794C99.0157 37.91 99.1083 37.807 99.1615 37.683C99.1638 37.6777 99.166 37.6723 99.1683 37.667Z" fill="url(#paint13_linear_131_2190)"/>
<path d="M99.4848 37.5037C99.247 37.4841 99.012 37.5387 98.8068 37.6509C98.3722 37.8886 97.4472 38.5074 97.042 39.6385C96.5029 41.1434 97.5644 41.0274 97.8047 40.9079C98.045 40.7883 98.2059 41.3678 98.807 41.5633C99.4082 41.7588 99.8147 41.0893 100.307 41.1102C100.799 41.131 101.021 41.3865 101.355 40.781C101.688 40.1755 102.333 40.4221 101.662 39.2081C101.103 38.1963 100.249 37.5667 99.4848 37.5037Z" fill="url(#paint14_radial_131_2190)"/>
<path d="M99.4625 35.8272C99.4625 35.8272 99.237 33.5159 100.455 32.6799C100.938 32.4176 101.346 32.8582 101.683 32.6292C102.019 32.4002 102.885 32.7876 102.754 33.2747C102.623 33.7618 103.678 33.9535 103.586 34.6097C103.493 35.2659 99.4722 38.0606 99.4625 35.8272Z" fill="url(#paint15_radial_131_2190)"/>
<path d="M103.586 34.6022L99.4623 34.9452C99.4259 35.4499 99.4626 35.8271 99.4626 35.8271C99.4705 37.6307 102.094 36.1553 103.152 35.175C103.184 35.146 103.214 35.1175 103.242 35.0895C103.242 35.0891 103.243 35.0887 103.243 35.0883C103.271 35.0607 103.298 35.0335 103.323 35.007C103.324 35.0063 103.324 35.0056 103.325 35.005C103.349 34.9789 103.373 34.9534 103.394 34.9286C103.395 34.9275 103.396 34.9265 103.397 34.9255C103.418 34.9011 103.437 34.8774 103.455 34.8544C103.456 34.8532 103.457 34.8519 103.458 34.8507C103.467 34.8395 103.475 34.8285 103.483 34.8176C103.484 34.8166 103.484 34.8156 103.485 34.8145C103.492 34.8045 103.499 34.7947 103.506 34.785C103.506 34.7838 103.507 34.7825 103.508 34.7812C103.515 34.7711 103.521 34.7612 103.527 34.7515C103.528 34.7499 103.529 34.7483 103.53 34.7467C103.535 34.7379 103.54 34.7293 103.545 34.7209C103.545 34.7198 103.546 34.7187 103.546 34.7176C103.551 34.7085 103.556 34.6997 103.56 34.6911C103.56 34.6893 103.561 34.6875 103.562 34.6857C103.566 34.6777 103.569 34.6699 103.572 34.6624C103.572 34.6617 103.572 34.6609 103.573 34.6602C103.576 34.6522 103.578 34.6445 103.58 34.6369C103.58 34.6351 103.581 34.6334 103.581 34.6316C103.583 34.6241 103.585 34.6168 103.586 34.6098C103.586 34.6098 103.586 34.6097 103.586 34.6097C103.586 34.6071 103.586 34.6047 103.586 34.6022Z" fill="url(#paint16_linear_131_2190)"/>
<path d="M99.7486 36.4491C99.6713 36.3451 99.6357 36.216 99.6403 36.0865C99.6513 35.7828 99.7111 34.9311 100.038 34.2916C100.444 33.5 99.9705 34.8199 100.023 35.3582C100.076 35.8964 100.36 34.8036 101.055 34.3272C101.749 33.8508 100.423 35.5126 100.439 35.9022C100.455 36.2919 100.903 35.5766 101.323 35.49C101.742 35.4034 100.949 36.1871 100.747 36.2917C100.544 36.3963 101.426 36.2993 101.562 36.4077C101.699 36.5161 100.47 36.7056 100.086 36.6496C99.9217 36.6256 99.8158 36.5396 99.7486 36.4491Z" fill="url(#paint17_linear_131_2190)"/>
<path d="M99.87 36.6347C99.87 36.6347 100.619 34.8129 102.334 34.8203C102.993 34.878 102.813 35.1654 103.43 35.2367C104.047 35.308 104.196 35.8301 104.098 36.3648C103.999 36.8996 104.723 37.6437 104.049 38.1623C103.374 38.6808 103.073 38.4599 102.948 38.8436C102.823 39.2273 102.478 39.6375 101.547 39.0983C100.616 38.5591 99.5652 37.3058 99.87 36.6347Z" fill="url(#paint18_radial_131_2190)"/>
<path d="M99.4088 37.4935C99.2795 37.5025 99.1583 37.5594 99.063 37.6472C98.8395 37.8531 98.2317 38.4527 97.9591 39.1174C97.6217 39.9402 98.316 38.7221 98.759 38.4118C99.2019 38.1014 98.5572 39.0286 98.6474 39.8661C98.7376 40.7036 99.1363 38.6148 99.4428 38.3737C99.7493 38.1325 99.4973 38.9378 99.7046 39.3128C99.912 39.6879 99.9912 38.5758 99.9386 38.3538C99.8861 38.1318 100.386 38.8643 100.557 38.8976C100.729 38.9308 100.073 37.8742 99.7806 37.6193C99.6554 37.5101 99.5212 37.4857 99.4088 37.4935Z" fill="url(#paint19_linear_131_2190)"/>
<path d="M99.9373 37.2701C99.7251 36.9805 99.8022 36.571 100.098 36.3674C100.478 36.1057 101.053 35.7284 101.386 35.5937C101.914 35.3803 101.163 35.9654 100.965 36.1929C100.766 36.4204 101.647 36.133 102.254 36.188C102.862 36.2429 102.469 36.4557 102.013 36.4145C101.558 36.3732 101.69 36.6944 102.56 36.7583C103.175 36.8034 102.8 37.1416 101.682 36.9948C100.527 36.8431 100.162 37.1278 100.547 37.2024C100.98 37.2862 101.358 37.2865 101.53 37.4936C101.626 37.6084 100.918 37.7117 100.272 37.5103C100.143 37.4702 100.029 37.3919 99.9476 37.2839C99.9441 37.2793 99.9407 37.2747 99.9373 37.2701Z" fill="url(#paint20_linear_131_2190)"/>
<path d="M103.38 35.2308C103.375 35.23 103.37 35.2292 103.365 35.2284C103.354 35.2267 103.343 35.225 103.333 35.2231C103.327 35.2222 103.322 35.2213 103.317 35.2202C103.306 35.2183 103.296 35.2162 103.286 35.214C103.282 35.2131 103.278 35.2123 103.274 35.2114C103.262 35.2086 103.249 35.2056 103.238 35.2026C103.232 35.2011 103.226 35.1995 103.221 35.1979C103.215 35.1961 103.208 35.1944 103.202 35.1925C103.196 35.1907 103.19 35.1889 103.185 35.187C103.179 35.1853 103.174 35.1836 103.169 35.1819C103.164 35.1799 103.158 35.1779 103.152 35.1758L103.152 35.1758C102.851 35.0645 102.867 34.8676 102.334 34.821C100.619 34.8136 99.87 36.6354 99.87 36.6354C99.7384 36.9252 99.5957 37.3456 99.851 37.7482L104.316 37.3826C104.311 37.3607 104.306 37.3386 104.301 37.3166C104.301 37.3163 104.301 37.316 104.301 37.3157C104.273 37.1991 104.233 37.0819 104.195 36.9668C104.192 36.9558 104.188 36.9449 104.185 36.9339C104.182 36.927 104.18 36.9201 104.178 36.9132C104.172 36.8945 104.166 36.8758 104.161 36.8572C104.16 36.8542 104.159 36.8512 104.158 36.8483C104.152 36.8299 104.147 36.8116 104.142 36.7934C104.141 36.7905 104.14 36.7875 104.139 36.7845C104.134 36.7662 104.129 36.7481 104.125 36.7301C104.124 36.7274 104.124 36.7247 104.123 36.7221C104.118 36.7034 104.114 36.6848 104.11 36.6663C104.11 36.6645 104.11 36.6627 104.109 36.6609C104.105 36.641 104.102 36.6212 104.099 36.6016C104.099 36.6008 104.099 36.6001 104.098 36.5993C104.096 36.5802 104.093 36.5613 104.092 36.5425C104.091 36.5407 104.091 36.5389 104.091 36.537C104.09 36.5191 104.089 36.5013 104.089 36.4838C104.089 36.4818 104.088 36.4798 104.088 36.4778C104.088 36.4601 104.089 36.4426 104.09 36.4252C104.09 36.4237 104.09 36.4222 104.091 36.4207C104.092 36.4021 104.094 36.3837 104.098 36.3655C104.147 36.0982 104.134 35.834 104.032 35.6277C104.013 35.589 103.991 35.5524 103.965 35.5181C103.957 35.5067 103.948 35.4956 103.939 35.4847C103.92 35.463 103.9 35.4424 103.878 35.423C103.77 35.326 103.623 35.2597 103.43 35.2374C103.413 35.2354 103.396 35.2331 103.38 35.2308Z" fill="url(#paint21_linear_131_2190)"/>
<path d="M93.9475 35.5115C93.9475 35.5115 96.7957 35.9825 97.8179 36.7889C98.84 37.5954 99.6912 37.9958 100.109 37.6125C100.527 37.2293 100.215 36.2613 98.3941 35.8516C96.5729 35.4419 94.5337 35.3027 93.9487 35.2727C93.3636 35.2427 93.5414 35.5195 93.9475 35.5115Z" fill="url(#paint22_linear_131_2190)"/>
<path d="M94.0903 35.6889C94.2705 35.4761 94.244 35.1574 94.0311 34.9773C93.8182 34.7971 93.4996 34.8236 93.3194 35.0364C93.1392 35.2493 93.1657 35.5679 93.3786 35.7481C93.5915 35.9283 93.9101 35.9018 94.0903 35.6889Z" fill="url(#paint23_radial_131_2190)"/>
<path d="M94.8182 35.9744C94.9077 35.8687 94.8946 35.7105 94.7889 35.621C94.6831 35.5315 94.5249 35.5447 94.4354 35.6504C94.346 35.7561 94.3591 35.9143 94.4648 36.0038C94.5705 36.0933 94.7288 36.0801 94.8182 35.9744Z" fill="url(#paint24_radial_131_2190)"/>
<path d="M95.2089 35.3494C95.2983 35.2437 95.2852 35.0855 95.1795 34.996C95.0738 34.9065 94.9155 34.9197 94.8261 35.0254C94.7366 35.1311 94.7498 35.2893 94.8555 35.3788C94.9612 35.4683 95.1194 35.4551 95.2089 35.3494Z" fill="url(#paint25_radial_131_2190)"/>
<path d="M95.6244 36.1014C95.7139 35.9957 95.7007 35.8374 95.595 35.748C95.4893 35.6585 95.3311 35.6716 95.2416 35.7774C95.1521 35.8831 95.1653 36.0413 95.271 36.1308C95.3767 36.2202 95.5349 36.2071 95.6244 36.1014Z" fill="url(#paint26_radial_131_2190)"/>
<path d="M96.1791 35.6424C96.2686 35.5367 96.2554 35.3785 96.1497 35.289C96.044 35.1995 95.8858 35.2127 95.7963 35.3184C95.7068 35.4241 95.72 35.5823 95.8257 35.6718C95.9314 35.7612 96.0896 35.7481 96.1791 35.6424Z" fill="url(#paint27_radial_131_2190)"/>
</g>
<g clip-path="url(#clip2_131_2190)">
<path d="M48.16 8.26973C48.0714 8.36511 47.9831 8.46222 47.895 8.56125C47.8644 8.48485 47.8372 8.40834 47.8133 8.33151C47.7974 8.28003 47.8411 8.22965 47.8944 8.23719C47.9853 8.25022 48.074 8.26086 48.16 8.26973Z" fill="#47821C"/>
<path d="M57.6497 7.22074C58.2161 7.17805 58.5205 7.00175 59.2801 6.75411C59.4068 6.7128 59.4977 6.60065 59.5103 6.46798C59.6222 5.28152 59.5561 4.29241 59.4718 3.64935C59.404 3.13222 59.0633 2.69273 58.5825 2.49055C57.8788 2.19467 57.1735 2.02187 56.4994 1.93313C56.3823 1.91772 56.2662 1.96643 56.193 2.05915C55.6681 2.72388 55.1264 3.24647 54.8834 4.10578C54.8616 4.18289 54.75 4.17552 54.7394 4.09611C54.681 3.66093 54.6178 2.87834 54.7198 1.9202C54.7248 1.87329 54.6856 1.83348 54.6387 1.83861C54.0851 1.89927 53.2876 2.04744 52.9022 2.13768C52.8797 2.14296 52.8611 2.15839 52.8519 2.17964C52.4509 3.10459 51.9446 4.43372 51.7831 5.56485C51.7714 5.64657 51.6551 5.65068 51.638 5.56993C51.503 4.93404 51.2766 3.74128 51.2619 2.83045C51.261 2.77336 51.1988 2.73875 51.15 2.76848C50.9811 2.87153 50.6918 3.05181 50.5882 3.11594C50.575 3.12412 50.5649 3.1361 50.559 3.15055C50.2402 3.9413 49.9083 5.07302 50.0583 6.11004C50.0683 6.17974 49.9857 6.22314 49.9345 6.17477C49.6619 5.91718 49.1229 5.32686 48.971 4.56759C48.9591 4.50806 48.8844 4.48718 48.844 4.53249C48.3236 5.11596 47.9692 5.74842 47.7775 6.55886C47.7722 6.58118 47.7778 6.60454 47.7925 6.62223C48.2218 7.14211 48.7285 7.86182 49.5456 8.12483C49.6214 8.14924 49.6114 8.25924 49.5324 8.26832C49.1803 8.30878 48.6045 8.33773 47.8935 8.23654C47.8402 8.22896 47.7964 8.27932 47.8124 8.33078C47.9464 8.76208 48.1839 9.18796 48.5479 9.60339C48.926 10.0852 49.8779 10.3038 50.3001 9.42676C50.3946 9.23087 50.441 8.81166 50.58 8.63827C50.8868 8.25547 51.1621 8.08968 51.472 7.82731C52.0193 7.38694 52.7494 7.39462 53.1041 7.84421C53.4567 8.29562 53.3018 9.021 52.7544 9.46146C52.43 9.70944 52.2109 9.94171 51.7728 10.1583C51.5745 10.2562 51.1652 10.1482 50.9554 10.1973C50.7724 10.2398 50.6086 10.3239 50.4711 10.4346C50.0462 10.7765 50.078 11.5533 50.3853 11.9448C50.6949 12.3865 51.0412 12.7118 51.4149 12.9406C51.4668 12.9724 51.5331 12.9311 51.5271 12.8705C51.433 11.9239 51.6236 11.3964 51.7577 11.1498C51.7919 11.0869 51.8868 11.1057 51.8953 11.1768C52.0054 12.0965 52.2642 12.7666 52.6808 13.341C52.6945 13.3599 52.7164 13.371 52.7398 13.371C53.0257 13.371 53.6516 13.3655 53.913 13.321C54.4157 13.2355 54.8932 13.0443 55.3336 12.7964C55.3859 12.767 55.3818 12.6908 55.3273 12.6656C54.6382 12.3483 54.1938 11.694 54.0036 11.3628C53.9673 11.2996 54.0352 11.2277 54.1005 11.2602C54.9809 11.6977 55.5718 12.0953 56.5477 12.0176C56.5653 12.0162 56.5818 12.0085 56.5941 11.9959C56.7519 11.8342 57.6919 10.877 58.0459 10.5129C58.0923 10.4652 58.0564 10.3858 57.99 10.3883C56.7613 10.4336 55.6548 9.7941 55.1743 9.46828C55.1092 9.42414 55.1492 9.32248 55.227 9.33452C56.3212 9.50432 57.4871 9.56355 58.4984 9.37599C58.5215 9.3717 58.541 9.35675 58.5512 9.33563C58.7251 8.97555 59.0481 8.22176 59.2314 7.68938C59.2467 7.64482 59.2167 7.59752 59.1699 7.5921C58.5122 7.51602 58.0032 7.43441 57.642 7.36674C57.5574 7.35093 57.5639 7.22722 57.6497 7.22074Z" fill="#4E901E"/>
<path d="M59.1837 2.95451C58.497 3.50709 53.8062 7.28169 53.1049 7.84598C53.087 7.82886 52.9716 7.66146 52.7239 7.56856C52.7237 7.56831 52.7233 7.56825 52.7228 7.5682C52.3189 7.41119 51.8244 7.54289 51.4715 7.82746C51.0755 8.15004 50.8509 8.30037 50.5796 8.63842C50.4993 8.73807 50.4411 8.95587 50.4405 8.9609C50.3631 9.22987 50.3296 9.55891 49.9619 9.85105C49.537 10.1929 48.8547 9.99512 48.5475 9.60336C48.2482 9.26189 48.0345 8.91345 47.8936 8.5606C47.863 8.4842 47.8358 8.40769 47.8119 8.33086C47.796 8.27938 47.8397 8.22899 47.893 8.23653C47.9838 8.24957 48.0726 8.26019 48.1586 8.26908C48.7476 8.33023 49.225 8.30378 49.5319 8.26838C49.6107 8.25892 49.6212 8.15006 49.5452 8.12482C49.2367 8.02549 48.9744 7.86285 48.7418 7.66789C48.3721 7.35867 48.0777 6.96836 47.792 6.62246L47.7921 6.62223C47.7773 6.60448 47.7718 6.5813 47.777 6.55887C47.9665 5.75603 48.323 5.115 48.8437 4.53255C48.8839 4.48703 48.9587 4.50807 48.9706 4.56745C49.1226 5.32686 49.6616 5.9171 49.9341 6.17466C49.9854 6.22297 50.068 6.17967 50.0578 6.10991C49.918 5.14324 50.1941 4.05269 50.5585 3.15068L50.5587 3.15048C50.5692 3.12434 50.5366 3.14266 51.1497 2.76843C51.1858 2.74666 51.2312 2.75856 51.253 2.79679C51.2937 2.87289 51.2073 3.48131 51.6001 5.39066C51.6122 5.4491 51.6247 5.50907 51.6377 5.57001C51.6548 5.65063 51.7711 5.64643 51.7826 5.56478C51.7976 5.45928 51.8159 5.35203 51.8366 5.2436C52.0376 4.18931 52.4879 3.0182 52.8515 2.17964C52.8607 2.15839 52.8792 2.14301 52.9019 2.13767C53.3782 2.02597 54.1747 1.88998 54.6384 1.8387C54.6853 1.83352 54.7244 1.87325 54.7195 1.92016C54.6393 2.67061 54.6512 3.4193 54.7389 4.09592C54.75 4.16265 54.8221 4.1757 54.8615 4.14161L54.8615 4.14138C54.9079 4.10426 54.9091 3.89351 55.1519 3.45034C55.1519 3.45011 55.1519 3.45011 55.1519 3.45011C55.4441 2.92138 55.8055 2.54977 56.1926 2.05924C56.2658 1.96641 56.382 1.91783 56.4989 1.93313C57.2935 2.03531 58.1486 2.28831 58.5859 2.49232C58.8256 2.59385 59.0305 2.75448 59.1837 2.95451Z" fill="#5EAC24"/>
<path d="M59.5059 6.49787C59.4835 6.61617 59.3984 6.71629 59.2801 6.75502C58.5205 7.00267 58.2162 7.17891 57.6496 7.22153C57.563 7.22794 57.5588 7.35287 57.6418 7.36765C58.0031 7.43537 58.512 7.51687 59.1698 7.59307C59.2164 7.59841 59.2465 7.64573 59.2313 7.69029C59.0479 8.22258 58.7249 8.97634 58.5511 9.33657C58.5408 9.35769 58.5213 9.3725 58.4983 9.37682C57.5861 9.5461 56.5484 9.51442 55.551 9.38209C55.4423 9.36773 55.3343 9.35201 55.2268 9.3354C55.149 9.32337 55.1091 9.42506 55.1741 9.46919C55.2286 9.50613 55.2915 9.54738 55.3616 9.59113C55.9078 9.93159 56.9008 10.4294 57.9899 10.3892C58.0559 10.3865 58.0924 10.466 58.0456 10.5138C56.4818 12.1213 56.5805 12.0149 56.5475 12.0186C55.5716 12.0962 54.9806 11.6985 54.1004 11.2611C54.035 11.2287 53.9671 11.3006 54.0035 11.3637C54.6051 12.4108 55.3201 12.6406 55.3553 12.6892C55.3739 12.7134 55.3753 12.7471 55.3589 12.7733C55.3589 12.7735 55.3587 12.7735 55.3587 12.7735C55.327 12.8219 54.6331 13.1994 53.9129 13.3218C53.6514 13.3662 53.0255 13.3719 52.7397 13.3718C52.7154 13.3721 52.6929 13.3597 52.6805 13.3417C51.8916 12.2499 51.9562 11.2084 51.8725 11.1326C51.8402 11.1025 51.7827 11.1046 51.7575 11.1506C51.3698 11.8641 51.5453 12.8399 51.5236 12.9022C51.5113 12.9403 51.4625 12.9688 51.4147 12.9415C51.0035 12.6897 50.6653 12.3454 50.3852 11.9457C50.0779 11.5542 50.0461 10.7774 50.4711 10.4355C50.6085 10.3249 50.7723 10.2407 50.9554 10.1981C51.1651 10.1492 51.5746 10.257 51.7727 10.159C52.1566 9.97078 52.3914 9.74847 52.4712 9.69022C52.4825 9.67258 52.8109 9.44178 52.9626 9.26009C52.9626 9.26009 52.9627 9.25986 52.9632 9.25966C53.3368 8.82202 53.4093 8.23413 53.1054 7.84681C53.1113 7.8421 59.1129 3.01269 59.1841 2.95531C59.3367 3.15431 59.438 3.39277 59.4718 3.65013C59.637 4.91178 59.5359 6.35932 59.5059 6.49787Z" fill="#4E901E"/>
<path d="M51.1498 2.76931C50.5367 3.14356 50.5692 3.12522 50.5588 3.15135L50.5586 3.15156C50.1942 4.05359 49.9181 5.14414 50.0579 6.11078C50.0681 6.18055 49.9854 6.22385 49.9341 6.17553C49.6617 5.91798 49.1227 5.32771 48.9707 4.56833C48.9588 4.50892 48.884 4.48789 48.8437 4.53343C48.3231 5.11588 47.9665 5.7569 47.7771 6.55975C47.7719 6.58217 47.7774 6.60536 47.7921 6.62311L47.7921 6.62334C48.0777 6.96924 48.3722 7.35954 48.7419 7.66877C49.6877 6.73806 50.6539 5.99097 51.6002 5.39153C51.2073 3.48219 51.2937 2.87377 51.2531 2.79767C51.2313 2.75946 51.1859 2.74752 51.1498 2.76931Z" fill="#6DC82A"/>
<path d="M54.6386 1.83873C54.1749 1.88999 53.3785 2.02599 52.9021 2.1377C52.8794 2.14301 52.8609 2.15841 52.8517 2.17967C52.4882 3.01822 52.0378 4.18933 51.8369 5.24363C52.8372 4.63356 53.8115 4.18625 54.7121 3.85856C54.6492 3.23645 54.6494 2.57841 54.7197 1.92021C54.7246 1.87325 54.6855 1.83352 54.6386 1.83873Z" fill="#6DC82A"/>
<path d="M58.5861 2.49159C58.1487 2.28759 57.2937 2.03458 56.4991 1.93241C56.3821 1.9171 56.266 1.96569 56.1928 2.05852C55.8057 2.54904 55.4442 2.92067 55.152 3.44938C55.152 3.44938 55.152 3.44938 55.152 3.44961C55.0877 3.56697 55.0402 3.66825 55.0044 3.75456C57.5231 2.89428 59.0994 3.02173 59.1839 2.95378C59.0307 2.75376 58.8258 2.59313 58.5861 2.49159Z" fill="#6DC82A"/>
<path d="M57.9898 10.3896C56.9008 10.4297 55.9078 9.93192 55.3615 9.59146C54.4761 10.5516 53.4028 11.4601 52.1078 12.2077C52.217 12.549 52.3916 12.9423 52.6805 13.3421C52.6928 13.36 52.7154 13.3725 52.7396 13.3721C53.0255 13.3722 53.6514 13.3666 53.9128 13.3221C54.6331 13.1998 55.3269 12.8223 55.3586 12.7738C55.3586 12.7738 55.3588 12.7739 55.3589 12.7736C55.3753 12.7475 55.3739 12.7137 55.3553 12.6895C55.3201 12.6409 54.6051 12.4111 54.0035 11.364C53.9671 11.3009 54.035 11.229 54.1004 11.2614C54.9806 11.6989 55.5716 12.0965 56.5474 12.0189C56.5804 12.0153 56.4859 12.1173 58.0456 10.5142C58.0924 10.4663 58.0559 10.3868 57.9898 10.3896Z" fill="#5EAC24"/>
<path d="M59.4718 3.64903C59.4379 3.39165 59.3366 3.15319 59.1841 2.95421C59.174 3.04343 59.1228 3.2894 59.0569 3.44674C58.5108 4.7492 57.5774 7.09935 55.551 9.381C56.5484 9.51333 57.5861 9.54501 58.4983 9.37573C58.5214 9.37141 58.5408 9.3566 58.5511 9.33548C58.725 8.97525 59.0479 8.2215 59.2314 7.6892C59.2465 7.64465 59.2164 7.59732 59.1698 7.59198C58.5121 7.51578 58.0031 7.43428 57.6418 7.36656C57.5588 7.35178 57.563 7.22685 57.6496 7.22044C58.2162 7.17782 58.5205 7.0016 59.2801 6.75393C59.3984 6.7152 59.4835 6.61508 59.5059 6.49678C59.5359 6.35825 59.637 4.91072 59.4718 3.64903Z" fill="#5EAC24"/>
<path d="M54.0111 1.92646C53.9041 2.27468 53.6528 3.14453 53.4906 4.12366C53.4748 4.21803 53.388 4.28267 53.294 4.27192C53.1928 4.26034 53.1212 4.16641 53.138 4.06534C53.2809 3.20202 53.4921 2.42083 53.618 1.99372C53.7458 1.97068 53.8789 1.94777 54.0111 1.92646Z" fill="#47821C"/>
<path d="M57.0801 6.1108C57.1153 6.20285 57.069 6.3062 56.9769 6.34147C56.0919 6.67934 55.3046 6.85498 54.6369 6.8635C54.5145 6.86479 54.3655 6.6788 54.3949 6.55833C54.7741 4.9919 56.17 3.22045 57.2852 2.07524C57.4184 2.1056 57.5524 2.13986 57.6868 2.17804C57.3724 2.49029 55.3182 4.58397 54.7796 6.50114C55.3737 6.47104 56.069 6.30547 56.8494 6.00745C56.9417 5.97243 57.0448 6.01852 57.0801 6.1108Z" fill="#47821C"/>
<path d="M59.5255 4.15391C58.9978 4.43337 57.2441 5.33568 56.2088 5.55707C56.0945 5.58209 55.9902 5.48958 55.9899 5.37877C55.9894 4.45736 57.6294 2.98331 58.3362 2.39302C58.4655 2.44222 58.6131 2.50049 58.7046 2.5498C58.7024 2.55231 56.7141 4.15826 56.39 5.14276C57.5183 4.81882 59.28 3.88048 59.4865 3.76933C59.5005 3.88772 59.5139 4.01612 59.5255 4.15391Z" fill="#47821C"/>
<path d="M48.2499 5.34744C48.7946 5.96398 50.2834 7.56943 51.3285 7.94323C51.0623 8.15759 51.0559 8.16172 51.012 8.19865C49.9594 7.71369 48.6594 6.3445 48.0744 5.68926C48.1273 5.57229 48.1862 5.45839 48.2499 5.34744Z" fill="#47821C"/>
<path d="M51.6904 7.68155C51.5375 7.7667 51.4479 7.85048 51.3966 7.88944C50.9198 7.00771 50.5578 5.12374 50.3429 3.74701C50.4116 3.53424 50.4858 3.33408 50.5592 3.15204C50.5698 3.12512 50.5896 3.11731 50.61 3.10389C50.8002 4.43465 51.1827 6.70517 51.6904 7.68155Z" fill="#47821C"/>
<path d="M59.5683 5.03993C59.2045 5.26573 58.4969 5.6819 57.6473 6.06269C57.617 6.07626 57.5848 6.08071 57.554 6.07719C57.3732 6.0565 57.3363 5.81039 57.5012 5.7366C58.4956 5.29086 59.3107 4.7824 59.5562 4.62414C59.5666 4.84989 59.5675 5.00163 59.5683 5.03993Z" fill="#47821C"/>
<path d="M53.1154 11.0266C53.157 11.1163 53.118 11.2224 53.0284 11.2639C52.9389 11.3051 52.8328 11.2663 52.7911 11.1766C52.5457 10.6465 52.3903 10.187 52.3272 9.80568C52.7469 9.46806 52.6367 9.55674 52.6556 9.54154C52.6797 9.91963 52.8344 10.4189 53.1154 11.0266Z" fill="#47821C"/>
<path d="M57.3176 11.2591C57.2205 11.3578 57.1246 11.4557 57.0358 11.5466C56.0103 11.2237 53.6058 10.4021 52.6721 9.52897C52.7253 9.48379 52.8243 9.41568 52.9379 9.28864C53.881 10.1472 56.4541 10.9922 57.3176 11.2591Z" fill="#47821C"/>
<path d="M54.3815 13.2119C54.2605 13.2489 54.1375 13.2799 54.0128 13.3045C53.8032 12.992 53.4474 12.4402 53.1175 11.8274C53.0708 11.7408 53.1033 11.6323 53.1903 11.5854C53.2772 11.5387 53.3854 11.5712 53.4323 11.6581C53.798 12.3374 54.196 12.9401 54.3815 13.2119Z" fill="#47821C"/>
<path d="M58.9987 8.30841C58.9487 8.43244 58.8974 8.55679 58.847 8.67597C58.2484 8.70989 57.1376 8.74709 56.1711 8.64178C56.1548 8.64014 56.1387 8.6383 56.1226 8.63646C55.1011 8.51959 54.0378 8.24613 53.3955 7.65102C53.3804 7.63705 53.366 7.6179 53.3578 7.60329C53.0338 7.02086 52.9097 6.18142 52.9888 5.10862C52.9962 5.01018 53.0819 4.93628 53.1803 4.94346C53.2787 4.95113 53.3524 5.03654 53.3453 5.13478C53.2723 6.12219 53.3775 6.88582 53.6574 7.40567C54.2605 7.94952 55.3705 8.18994 56.4429 8.28698C57.5111 8.38356 58.5423 8.33797 58.9987 8.30841Z" fill="#47821C"/>
</g>
<defs>
<filter id="filter0_d_131_2190" x="104.601" y="6.59961" width="38.8633" height="38.8633" filterUnits="userSpaceOnUse" color-interpolation-filters="sRGB">
<feFlood flood-opacity="0" result="BackgroundImageFix"/>
<feColorMatrix in="SourceAlpha" type="matrix" values="0 0 0 0 0 0 0 0 0 0 0 0 0 0 0 0 0 0 127 0" result="hardAlpha"/>
<feOffset dy="4"/>
<feGaussianBlur stdDeviation="2"/>
<feColorMatrix type="matrix" values="0 0 0 0 0 0 0 0 0 0 0 0 0 0 0 0 0 0 0.25 0"/>
<feBlend mode="normal" in2="BackgroundImageFix" result="effect1_dropShadow_131_2190"/>
<feBlend mode="normal" in="SourceGraphic" in2="effect1_dropShadow_131_2190" result="shape"/>
</filter>
<linearGradient id="paint0_linear_131_2190" x1="96.9705" y1="44.1238" x2="101.594" y2="37.903" gradientUnits="userSpaceOnUse">
<stop offset="0.003" stop-color="#FFE000"/>
<stop offset="0.018" stop-color="#FCE000"/>
<stop offset="0.319" stop-color="#C5DD00"/>
<stop offset="0.464" stop-color="#AFDC00"/>
<stop offset="0.55" stop-color="#A7D200"/>
<stop offset="0.695" stop-color="#93B800"/>
<stop offset="0.879" stop-color="#718E00"/>
<stop offset="1" stop-color="#586E00"/>
</linearGradient>
<linearGradient id="paint1_linear_131_2190" x1="97.6698" y1="41.2348" x2="100.434" y2="41.8679" gradientUnits="userSpaceOnUse">
<stop stop-color="#AFDC00" stop-opacity="0"/>
<stop offset="0.472" stop-color="#84A600" stop-opacity="0.472"/>
<stop offset="1" stop-color="#586E00"/>
</linearGradient>
<linearGradient id="paint2_linear_131_2190" x1="104.187" y1="42.7074" x2="100.421" y2="35.933" gradientUnits="userSpaceOnUse">
<stop offset="0.003" stop-color="#FFE000"/>
<stop offset="0.018" stop-color="#FCE000"/>
<stop offset="0.319" stop-color="#C5DD00"/>
<stop offset="0.464" stop-color="#AFDC00"/>
<stop offset="0.55" stop-color="#A7D200"/>
<stop offset="0.695" stop-color="#93B800"/>
<stop offset="0.879" stop-color="#718E00"/>
<stop offset="1" stop-color="#586E00"/>
</linearGradient>
<linearGradient id="paint3_linear_131_2190" x1="101.842" y1="40.8811" x2="103.557" y2="38.6223" gradientUnits="userSpaceOnUse">
<stop stop-color="#AFDC00" stop-opacity="0"/>
<stop offset="0.472" stop-color="#84A600" stop-opacity="0.472"/>
<stop offset="1" stop-color="#586E00"/>
</linearGradient>
<linearGradient id="paint4_linear_131_2190" x1="106.687" y1="32.9258" x2="101.021" y2="38.2141" gradientUnits="userSpaceOnUse">
<stop offset="0.003" stop-color="#FFE000"/>
<stop offset="0.018" stop-color="#FCE000"/>
<stop offset="0.319" stop-color="#C5DD00"/>
<stop offset="0.464" stop-color="#AFDC00"/>
<stop offset="0.55" stop-color="#A7D200"/>
<stop offset="0.695" stop-color="#93B800"/>
<stop offset="0.879" stop-color="#718E00"/>
<stop offset="1" stop-color="#586E00"/>
</linearGradient>
<linearGradient id="paint5_linear_131_2190" x1="103.893" y1="33.9428" x2="104.831" y2="36.6195" gradientUnits="userSpaceOnUse">
<stop stop-color="#AFDC00" stop-opacity="0"/>
<stop offset="0.472" stop-color="#84A600" stop-opacity="0.472"/>
<stop offset="1" stop-color="#586E00"/>
</linearGradient>
<linearGradient id="paint6_linear_131_2190" x1="102.477" y1="41.263" x2="98.6295" y2="40.1782" gradientUnits="userSpaceOnUse">
<stop stop-color="#AFDC00" stop-opacity="0"/>
<stop offset="0.472" stop-color="#84A600" stop-opacity="0.472"/>
<stop offset="1" stop-color="#586E00"/>
</linearGradient>
<linearGradient id="paint7_linear_131_2190" x1="104.993" y1="38.8311" x2="100.658" y2="39.1916" gradientUnits="userSpaceOnUse">
<stop stop-color="#AFDC00" stop-opacity="0"/>
<stop offset="0.472" stop-color="#84A600" stop-opacity="0.472"/>
<stop offset="1" stop-color="#586E00"/>
</linearGradient>
<linearGradient id="paint8_linear_131_2190" x1="105.484" y1="35.1442" x2="103.25" y2="35.5619" gradientUnits="userSpaceOnUse">
<stop stop-color="#AFDC00" stop-opacity="0"/>
<stop offset="0.472" stop-color="#84A600" stop-opacity="0.472"/>
<stop offset="1" stop-color="#586E00"/>
</linearGradient>
<radialGradient id="paint9_radial_131_2190" cx="0" cy="0" r="1" gradientUnits="userSpaceOnUse" gradientTransform="translate(100.972 38.4174) rotate(-61.835) scale(6.66052 6.66091)">
<stop stop-color="#FF5C45"/>
<stop offset="0.29" stop-color="#FF5F47"/>
<stop offset="0.498" stop-color="#FF684E"/>
<stop offset="0.681" stop-color="#FF785B"/>
<stop offset="0.847" stop-color="#FF8E6C"/>
<stop offset="0.998" stop-color="#FFA981"/>
</radialGradient>
<linearGradient id="paint10_linear_131_2190" x1="99.5949" y1="33.5323" x2="96.9076" y2="36.707" gradientUnits="userSpaceOnUse">
<stop stop-color="#FFA981" stop-opacity="0"/>
<stop offset="1" stop-color="#B82934"/>
</linearGradient>
<linearGradient id="paint11_linear_131_2190" x1="97.3006" y1="33.7405" x2="99.8012" y2="36.7544" gradientUnits="userSpaceOnUse">
<stop stop-color="#FFA981" stop-opacity="0"/>
<stop offset="1" stop-color="#B82934"/>
</linearGradient>
<radialGradient id="paint12_radial_131_2190" cx="0" cy="0" r="1" gradientUnits="userSpaceOnUse" gradientTransform="translate(101.816 35.9641) rotate(-49.7538) scale(6.8274 6.8274)">
<stop stop-color="#FF5C45"/>
<stop offset="0.29" stop-color="#FF5F47"/>
<stop offset="0.498" stop-color="#FF684E"/>
<stop offset="0.681" stop-color="#FF785B"/>
<stop offset="0.847" stop-color="#FF8E6C"/>
<stop offset="0.998" stop-color="#FFA981"/>
</radialGradient>
<linearGradient id="paint13_linear_131_2190" x1="95.032" y1="37.545" x2="100.529" y2="37.2285" gradientUnits="userSpaceOnUse">
<stop stop-color="#FFA981" stop-opacity="0"/>
<stop offset="1" stop-color="#B82934"/>
</linearGradient>
<radialGradient id="paint14_radial_131_2190" cx="0" cy="0" r="1" gradientUnits="userSpaceOnUse" gradientTransform="translate(98.8688 33.1329) rotate(-41.0981) scale(7.08039 7.39718)">
<stop stop-color="#FF5C45"/>
<stop offset="0.29" stop-color="#FF5F47"/>
<stop offset="0.498" stop-color="#FF684E"/>
<stop offset="0.681" stop-color="#FF785B"/>
<stop offset="0.847" stop-color="#FF8E6C"/>
<stop offset="0.998" stop-color="#FFA981"/>
</radialGradient>
<radialGradient id="paint15_radial_131_2190" cx="0" cy="0" r="1" gradientUnits="userSpaceOnUse" gradientTransform="translate(97.3352 39.3943) rotate(-61.9273) scale(6.34532 7.3281)">
<stop stop-color="#FF5C45"/>
<stop offset="0.29" stop-color="#FF5F47"/>
<stop offset="0.498" stop-color="#FF684E"/>
<stop offset="0.681" stop-color="#FF785B"/>
<stop offset="0.847" stop-color="#FF8E6C"/>
<stop offset="0.998" stop-color="#FFA981"/>
</radialGradient>
<linearGradient id="paint16_linear_131_2190" x1="102.347" y1="35.0913" x2="98.735" y2="36.1869" gradientUnits="userSpaceOnUse">
<stop stop-color="#FFA981" stop-opacity="0"/>
<stop offset="1" stop-color="#B82934"/>
</linearGradient>
<linearGradient id="paint17_linear_131_2190" x1="102.02" y1="33.9836" x2="99.387" y2="36.8829" gradientUnits="userSpaceOnUse">
<stop stop-color="#FFA981" stop-opacity="0"/>
<stop offset="1" stop-color="#B82934"/>
</linearGradient>
<radialGradient id="paint18_radial_131_2190" cx="0" cy="0" r="1" gradientUnits="userSpaceOnUse" gradientTransform="translate(96.6077 34.6435) rotate(-63.1865) scale(6.41118 6.41116)">
<stop stop-color="#FF5C45"/>
<stop offset="0.29" stop-color="#FF5F47"/>
<stop offset="0.498" stop-color="#FF684E"/>
<stop offset="0.681" stop-color="#FF785B"/>
<stop offset="0.847" stop-color="#FF8E6C"/>
<stop offset="0.998" stop-color="#FFA981"/>
</radialGradient>
<linearGradient id="paint19_linear_131_2190" x1="99.0142" y1="40.8237" x2="99.5027" y2="36.9379" gradientUnits="userSpaceOnUse">
<stop stop-color="#FFA981" stop-opacity="0"/>
<stop offset="1" stop-color="#B82934"/>
</linearGradient>
<linearGradient id="paint20_linear_131_2190" x1="103.923" y1="36.1225" x2="98.5005" y2="37.111" gradientUnits="userSpaceOnUse">
<stop stop-color="#FFA981" stop-opacity="0"/>
<stop offset="1" stop-color="#B82934"/>
</linearGradient>
<linearGradient id="paint21_linear_131_2190" x1="105.215" y1="35.9402" x2="96.8627" y2="36.635" gradientUnits="userSpaceOnUse">
<stop stop-color="#FFA981" stop-opacity="0"/>
<stop offset="1" stop-color="#B82934"/>
</linearGradient>
<linearGradient id="paint22_linear_131_2190" x1="96.7824" y1="36.9315" x2="97.1341" y2="35.4295" gradientUnits="userSpaceOnUse">
<stop stop-color="#FEFFB3"/>
<stop offset="1" stop-color="#FFCD77"/>
</linearGradient>
<radialGradient id="paint23_radial_131_2190" cx="0" cy="0" r="1" gradientUnits="userSpaceOnUse" gradientTransform="translate(93.4584 35.3205) rotate(-49.7538) scale(1.10752 1.10753)">
<stop stop-color="#FEFFB3"/>
<stop offset="0.193" stop-color="#FEF296"/>
<stop offset="0.609" stop-color="#FFD14B"/>
<stop offset="1" stop-color="#FFAF00"/>
</radialGradient>
<radialGradient id="paint24_radial_131_2190" cx="0" cy="0" r="1" gradientUnits="userSpaceOnUse" gradientTransform="translate(94.5046 35.7915) rotate(-49.7538) scale(0.549939)">
<stop stop-color="#FEFFB3"/>
<stop offset="0.193" stop-color="#FEF296"/>
<stop offset="0.609" stop-color="#FFD14B"/>
<stop offset="1" stop-color="#FFAF00"/>
</radialGradient>
<radialGradient id="paint25_radial_131_2190" cx="0" cy="0" r="1" gradientUnits="userSpaceOnUse" gradientTransform="translate(94.8952 35.1666) rotate(-49.7538) scale(0.549939 0.549941)">
<stop stop-color="#FEFFB3"/>
<stop offset="0.193" stop-color="#FEF296"/>
<stop offset="0.609" stop-color="#FFD14B"/>
<stop offset="1" stop-color="#FFAF00"/>
</radialGradient>
<radialGradient id="paint26_radial_131_2190" cx="0" cy="0" r="1" gradientUnits="userSpaceOnUse" gradientTransform="translate(95.3107 35.9185) rotate(-49.7538) scale(0.549939)">
<stop stop-color="#FEFFB3"/>
<stop offset="0.193" stop-color="#FEF296"/>
<stop offset="0.609" stop-color="#FFD14B"/>
<stop offset="1" stop-color="#FFAF00"/>
</radialGradient>
<radialGradient id="paint27_radial_131_2190" cx="0" cy="0" r="1" gradientUnits="userSpaceOnUse" gradientTransform="translate(95.8654 35.4595) rotate(-49.7538) scale(0.549939)">
<stop stop-color="#FEFFB3"/>
<stop offset="0.193" stop-color="#FEF296"/>
<stop offset="0.609" stop-color="#FFD14B"/>
<stop offset="1" stop-color="#FFAF00"/>
</radialGradient>
<clipPath id="clip0_131_2190">
<rect width="25" height="25" fill="white" transform="translate(108.601 13.4082) rotate(-15.8021)"/>
</clipPath>
<clipPath id="clip1_131_2190">
<rect width="13" height="13" fill="white" transform="translate(90.8228 37.7461) rotate(-49.7538)"/>
</clipPath>
<clipPath id="clip2_131_2190">
<rect width="11.7917" height="11.7917" fill="white" transform="translate(48.3403 1) rotate(6.52691)"/>
</clipPath>
</defs>
</svg>
